<svg width="64" height="24" viewBox="0 0 64 24" xmlns="http://www.w3.org/2000/svg"><title>dag</title><g class="is-black" fill="#000" fill-rule="evenodd"><path d="M4.224 4.05v15.897h3.813c4.05 0 7.492-2.473 7.492-7.95 0-5.193-3.398-7.95-7.493-7.95H4.224v.003zM19.752 12c0 7.426-5.227 11.673-11.716 11.673H0V.327h8.037C14.525.327 19.752 4.574 19.752 12zM22.328.327v3.08l5.12.645-7.71 19.62h4.18l1.786-4.67h10.04l1.815 4.67v-.002h4.544L34.328 4.05l5.074-.642V.328H22.328zm8.362 4.92h.066l3.57 10.03H27.12l3.57-10.03zM52.506 11.03H63.2v8.3C61.153 22.245 57.754 24 53.638 24c-7.013 0-12-4.637-12-12 0-7.36 4.858-12 11.78-12 4.335 0 8.038 2.144 9.78 5.935l-3.854 1.59c-1.045-2.306-3.136-3.8-5.925-3.8-4.944 0-7.56 3.572-7.56 8.277 0 4.703 2.745 8.266 7.777 8.266 2.2 0 4.158-.74 5.356-2.004V14.76h-6.488v-3.73z"/></g></svg>